<?xml version="1.0" encoding="iso-8859-1"?>
<!-- Generator: Adobe Illustrator 17.1.0, SVG Export Plug-In . SVG Version: 6.00 Build 0)  -->
<!DOCTYPE svg PUBLIC "-//W3C//DTD SVG 1.1//EN" "http://www.w3.org/Graphics/SVG/1.1/DTD/svg11.dtd">
<svg xmlns="http://www.w3.org/2000/svg" xmlns:xlink="http://www.w3.org/1999/xlink" version="1.1" id="Capa_1" x="0px" y="0px" viewBox="0 0 334.829 334.829" style="enable-background:new 0 0 334.829 334.829;" xml:space="preserve" width="512px" height="512px">
<path d="M292.744,12.596c-10.829-8.565-26.552-6.733-35.118,4.096l-10.635,13.443c-3.767-1.708-7.943-2.667-12.341-2.667h-14.159V20  c0-11.028-8.972-20-20-20h-73.767c-11.028,0-20,8.972-20,20v7.468H92.566c-16.542,0-30,13.458-30,30v205.785L37.99,294.317  c-8.566,10.828-6.733,26.551,4.095,35.117c4.591,3.632,10.062,5.395,15.495,5.395c7.38,0,14.689-3.253,19.623-9.49l18.737-23.685  h138.71c16.542,0,30-13.458,30-30V88.4l32.188-40.687C305.405,36.885,303.572,21.162,292.744,12.596z M92.566,57.468h132.801  L92.566,225.332V57.468z M234.653,271.654H119.674L234.651,126.32L234.653,271.654z" fill="#00ee93"/>
<g>
</g>
<g>
</g>
<g>
</g>
<g>
</g>
<g>
</g>
<g>
</g>
<g>
</g>
<g>
</g>
<g>
</g>
<g>
</g>
<g>
</g>
<g>
</g>
<g>
</g>
<g>
</g>
<g>
</g>
</svg>
