<?xml version="1.0" encoding="iso-8859-1"?>
<!-- Generator: Adobe Illustrator 17.1.0, SVG Export Plug-In . SVG Version: 6.00 Build 0)  -->
<!DOCTYPE svg PUBLIC "-//W3C//DTD SVG 1.1//EN" "http://www.w3.org/Graphics/SVG/1.1/DTD/svg11.dtd">
<svg xmlns="http://www.w3.org/2000/svg" xmlns:xlink="http://www.w3.org/1999/xlink" version="1.1" id="Capa_1" x="0px" y="0px" viewBox="0 0 370.021 370.021" style="enable-background:new 0 0 370.021 370.021;" xml:space="preserve" width="512px" height="512px">
<path d="M276.022,39.163h-22.087V20c0-11.028-8.972-20-20-20h-97.85c-11.028,0-20,8.972-20,20v19.163H93.999  c-16.542,0-30,13.458-30,30v270.858c0,16.542,13.458,30,30,30h182.023c16.542,0,30-13.458,30-30V69.163  C306.022,52.621,292.564,39.163,276.022,39.163z M157.719,326.021l17.896-85.014c0.145-0.694-0.03-1.417-0.482-1.979  c-0.433-0.523-1.125-0.855-1.825-0.855h-31.632l70.304-106.583l-17.814,80.144c-0.153,0.695,0.015,1.413,0.462,1.964  c0.461,0.58,1.127,0.899,1.845,0.899h31.748L157.719,326.021z M276.022,94.78H93.999V69.163h182.023V94.78L276.022,94.78z" fill="#00ee93"/>
<g>
</g>
<g>
</g>
<g>
</g>
<g>
</g>
<g>
</g>
<g>
</g>
<g>
</g>
<g>
</g>
<g>
</g>
<g>
</g>
<g>
</g>
<g>
</g>
<g>
</g>
<g>
</g>
<g>
</g>
</svg>
