<?xml version="1.0" encoding="iso-8859-1"?>
<!-- Generator: Adobe Illustrator 17.1.0, SVG Export Plug-In . SVG Version: 6.00 Build 0)  -->
<!DOCTYPE svg PUBLIC "-//W3C//DTD SVG 1.1//EN" "http://www.w3.org/Graphics/SVG/1.1/DTD/svg11.dtd">
<svg xmlns="http://www.w3.org/2000/svg" xmlns:xlink="http://www.w3.org/1999/xlink" version="1.1" id="Capa_1" x="0px" y="0px" viewBox="0 0 377.021 377.021" style="enable-background:new 0 0 377.021 377.021;" xml:space="preserve" width="512px" height="512px">
<g>
	<path d="M279.522,36.163h-22.086V20c0-11.028-8.972-20-20-20h-97.85c-11.028,0-20,8.972-20,20v16.163H97.5   c-16.542,0-30,13.458-30,30v280.858c0,16.542,13.458,30,30,30h182.022c16.542,0,30-13.458,30-30V66.163   C309.522,49.621,296.064,36.163,279.522,36.163z M97.5,347.021V66.163h182.022l0.003,280.858H97.5z" fill="#00ee93"/>
	<rect x="122.586" y="266.5" width="131.85" height="59.663" fill="#00ee93"/>
</g>
<g>
</g>
<g>
</g>
<g>
</g>
<g>
</g>
<g>
</g>
<g>
</g>
<g>
</g>
<g>
</g>
<g>
</g>
<g>
</g>
<g>
</g>
<g>
</g>
<g>
</g>
<g>
</g>
<g>
</g>
</svg>
