<?xml version="1.0" standalone="no"?><!-- Generator: Gravit.io --><svg xmlns="http://www.w3.org/2000/svg" xmlns:xlink="http://www.w3.org/1999/xlink" style="isolation:isolate" viewBox="0 0 512 512" width="512" height="512"><defs><clipPath id="_clipPath_Yz1idmZ5miAxySZa00guu2I9VYziC4gY"><rect width="512" height="512"/></clipPath></defs><g clip-path="url(#_clipPath_Yz1idmZ5miAxySZa00guu2I9VYziC4gY)"><path d=" M 418.799 288.831 L 436.834 306.863 C 439.541 309.557 441.056 313.234 441.056 317.071 L 441.056 441.508 C 441.056 470.707 417.38 494.382 388.182 494.382 L 303.687 494.382 L 303.687 363.529 L 208.295 363.529 L 208.295 494.382 L 123.801 494.382 C 94.603 494.382 70.927 470.707 70.927 441.507 L 70.927 317.071 C 70.927 313.234 72.454 309.557 75.149 306.863 L 245.809 136.254 C 251.429 130.62 260.556 130.62 266.192 136.254 L 266.192 136.254 L 266.192 136.254 L 358.702 228.746 L 274.086 228.746 L 274.086 172.727 L 153.917 258.788 L 274.086 344.849 L 274.086 344.849 L 274.086 288.831 L 418.799 288.831 Z  M 503.406 233.072 L 425.81 155.475 L 425.81 65.839 C 425.81 49.631 412.676 36.496 396.445 36.496 C 380.251 36.496 367.117 49.631 367.117 65.839 L 367.117 96.783 L 309.341 39.005 C 280.775 10.455 231.11 10.506 202.61 39.056 L 8.591 233.072 C -2.863 244.548 -2.863 263.117 8.591 274.575 C 20.049 286.048 38.654 286.048 50.109 274.575 L 244.109 80.555 C 250.429 74.268 261.569 74.268 267.855 80.536 L 461.889 274.575 C 467.643 280.312 475.144 283.166 482.643 283.166 C 490.158 283.166 497.671 280.309 503.407 274.575 C 514.865 263.118 514.865 244.549 503.406 233.072 L 503.406 233.072 Z " fill-rule="evenodd" fill="rgb(0,238,147)"/></g></svg>