<?xml version="1.0"?>
<svg xmlns="http://www.w3.org/2000/svg" height="512px" version="1.1" viewBox="-38 0 512 512.00142" width="512px">
<g id="surface1">
<path d="M 217.996094 158.457031 C 164.203125 158.457031 120.441406 202.21875 120.441406 256.007812 C 120.441406 309.800781 164.203125 353.5625 217.996094 353.5625 C 271.785156 353.5625 315.546875 309.800781 315.546875 256.007812 C 315.546875 202.21875 271.785156 158.457031 217.996094 158.457031 Z M 275.914062 237.636719 L 206.027344 307.523438 C 203.09375 310.457031 199.246094 311.925781 195.402344 311.925781 C 191.558594 311.925781 187.714844 310.460938 184.78125 307.523438 L 158.074219 280.816406 C 152.207031 274.953125 152.207031 265.441406 158.074219 259.574219 C 163.9375 253.707031 173.449219 253.707031 179.316406 259.574219 L 195.402344 275.660156 L 254.671875 216.394531 C 260.535156 210.527344 270.046875 210.527344 275.914062 216.394531 C 281.78125 222.257812 281.78125 231.769531 275.914062 237.636719 Z M 275.914062 237.636719 " style=" fill-rule:nonzero;fill-opacity:1;" stroke="#898f91" fill="#898f91"/>
<path d="M 435.488281 138.917969 L 435.472656 138.519531 C 435.25 133.601562 435.101562 128.398438 435.011719 122.609375 C 434.59375 94.378906 412.152344 71.027344 383.917969 69.449219 C 325.050781 66.164062 279.511719 46.96875 240.601562 9.042969 L 240.269531 8.726562 C 227.578125 -2.910156 208.433594 -2.910156 195.738281 8.726562 L 195.40625 9.042969 C 156.496094 46.96875 110.957031 66.164062 52.089844 69.453125 C 23.859375 71.027344 1.414062 94.378906 0.996094 122.613281 C 0.910156 128.363281 0.757812 133.566406 0.535156 138.519531 L 0.511719 139.445312 C -0.632812 199.472656 -2.054688 274.179688 22.9375 341.988281 C 36.679688 379.277344 57.492188 411.691406 84.792969 438.335938 C 115.886719 468.679688 156.613281 492.769531 205.839844 509.933594 C 207.441406 510.492188 209.105469 510.945312 210.800781 511.285156 C 213.191406 511.761719 215.597656 512 218.003906 512 C 220.410156 512 222.820312 511.761719 225.207031 511.285156 C 226.902344 510.945312 228.578125 510.488281 230.1875 509.925781 C 279.355469 492.730469 320.039062 468.628906 351.105469 438.289062 C 378.394531 411.636719 399.207031 379.214844 412.960938 341.917969 C 438.046875 273.90625 436.628906 199.058594 435.488281 138.917969 Z M 217.996094 383.605469 C 147.636719 383.605469 90.398438 326.367188 90.398438 256.007812 C 90.398438 185.648438 147.636719 128.410156 217.996094 128.410156 C 288.351562 128.410156 345.59375 185.648438 345.59375 256.007812 C 345.59375 326.367188 288.351562 383.605469 217.996094 383.605469 Z M 217.996094 383.605469 " style=" fill-rule:nonzero;fill-opacity:1;" stroke="#898f91" fill="#898f91"/>
</g>
</svg>
