<?xml version="1.0"?>
<svg xmlns="http://www.w3.org/2000/svg" height="512px" version="1.1" viewBox="-38 1 511 511.99841" width="512px">
<g id="surface1">
<path d="M 218.492188 158.453125 C 164.703125 158.453125 120.941406 202.214844 120.941406 256.003906 C 120.941406 309.796875 164.703125 353.558594 218.492188 353.558594 C 272.285156 353.558594 316.046875 309.796875 316.046875 256.003906 C 316.046875 202.214844 272.285156 158.453125 218.492188 158.453125 Z M 203.472656 204.648438 C 203.472656 196.355469 210.195312 189.628906 218.492188 189.628906 C 226.789062 189.628906 233.515625 196.355469 233.515625 204.648438 L 233.515625 263.640625 C 233.515625 271.933594 226.789062 278.660156 218.492188 278.660156 C 210.195312 278.660156 203.472656 271.933594 203.472656 263.640625 Z M 233.4375 310.9375 C 233.386719 311.417969 233.316406 311.910156 233.21875 312.390625 C 233.128906 312.871094 233.007812 313.351562 232.859375 313.820312 C 232.71875 314.28125 232.546875 314.753906 232.367188 315.203125 C 232.175781 315.652344 231.964844 316.105469 231.734375 316.535156 C 231.503906 316.96875 231.253906 317.386719 230.984375 317.796875 C 230.714844 318.207031 230.414062 318.609375 230.105469 318.980469 C 229.792969 319.371094 229.460938 319.730469 229.113281 320.082031 C 228.773438 320.433594 228.402344 320.761719 228.019531 321.074219 C 227.640625 321.382812 227.238281 321.675781 226.828125 321.953125 C 226.429688 322.214844 225.996094 322.476562 225.566406 322.707031 C 225.136719 322.9375 224.683594 323.144531 224.234375 323.335938 C 223.785156 323.519531 223.324219 323.6875 222.851562 323.828125 C 222.382812 323.96875 221.902344 324.085938 221.429688 324.1875 C 220.949219 324.289062 220.460938 324.359375 219.96875 324.40625 C 219.476562 324.457031 218.988281 324.476562 218.496094 324.476562 C 218.003906 324.476562 217.503906 324.457031 217.015625 324.40625 C 216.535156 324.359375 216.042969 324.289062 215.5625 324.1875 C 215.082031 324.085938 214.601562 323.964844 214.128906 323.828125 C 213.660156 323.6875 213.199219 323.515625 212.746094 323.335938 C 212.296875 323.148438 211.847656 322.9375 211.414062 322.707031 C 210.984375 322.476562 210.566406 322.214844 210.152344 321.953125 C 209.742188 321.675781 209.34375 321.382812 208.972656 321.074219 C 208.582031 320.761719 208.222656 320.433594 207.871094 320.082031 C 207.519531 319.730469 207.191406 319.371094 206.878906 318.980469 C 206.570312 318.609375 206.277344 318.207031 206.007812 317.796875 C 205.738281 317.386719 205.476562 316.96875 205.246094 316.535156 C 205.015625 316.105469 204.804688 315.652344 204.625 315.203125 C 204.433594 314.753906 204.265625 314.28125 204.125 313.820312 C 203.984375 313.351562 203.863281 312.871094 203.765625 312.390625 C 203.664062 311.90625 203.59375 311.417969 203.542969 310.9375 C 203.492188 310.445312 203.472656 309.945312 203.472656 309.457031 C 203.472656 308.964844 203.492188 308.472656 203.542969 307.984375 C 203.59375 307.492188 203.664062 307.003906 203.765625 306.519531 C 203.863281 306.039062 203.984375 305.558594 204.125 305.097656 C 204.265625 304.628906 204.433594 304.167969 204.625 303.714844 C 204.804688 303.265625 205.015625 302.816406 205.246094 302.382812 C 205.476562 301.953125 205.738281 301.523438 206.007812 301.121094 C 206.277344 300.710938 206.570312 300.3125 206.878906 299.929688 C 207.191406 299.550781 207.519531 299.179688 207.871094 298.839844 C 208.222656 298.488281 208.582031 298.15625 208.972656 297.847656 C 209.34375 297.535156 209.742188 297.238281 210.152344 296.964844 C 210.566406 296.695312 210.984375 296.445312 211.414062 296.214844 C 211.847656 295.984375 212.296875 295.777344 212.746094 295.585938 C 213.199219 295.402344 213.660156 295.234375 214.128906 295.09375 C 214.601562 294.953125 215.082031 294.824219 215.5625 294.734375 C 216.042969 294.632812 216.535156 294.5625 217.015625 294.511719 C 217.996094 294.414062 218.988281 294.414062 219.96875 294.511719 C 220.460938 294.5625 220.949219 294.632812 221.429688 294.734375 C 221.902344 294.824219 222.382812 294.953125 222.851562 295.09375 C 223.324219 295.234375 223.785156 295.40625 224.234375 295.585938 C 224.683594 295.773438 225.136719 295.984375 225.566406 296.214844 C 225.996094 296.445312 226.429688 296.695312 226.828125 296.964844 C 227.238281 297.238281 227.640625 297.535156 228.019531 297.847656 C 228.402344 298.160156 228.773438 298.488281 229.113281 298.839844 C 229.460938 299.179688 229.792969 299.550781 230.105469 299.929688 C 230.414062 300.3125 230.714844 300.710938 230.984375 301.121094 C 231.253906 301.523438 231.503906 301.953125 231.734375 302.382812 C 231.964844 302.816406 232.175781 303.265625 232.367188 303.714844 C 232.546875 304.167969 232.71875 304.628906 232.859375 305.097656 C 233.007812 305.558594 233.128906 306.039062 233.21875 306.519531 C 233.316406 307 233.386719 307.492188 233.4375 307.984375 C 233.488281 308.472656 233.519531 308.964844 233.519531 309.457031 C 233.519531 309.945312 233.488281 310.445312 233.4375 310.9375 Z M 233.4375 310.9375 " style=" fill-rule:nonzero;fill-opacity:1;" stroke="#898f91" fill="#898f91"/>
<path d="M 435.984375 138.914062 L 435.972656 138.519531 C 435.746094 133.582031 435.597656 128.378906 435.511719 122.605469 C 435.09375 94.375 412.652344 71.027344 384.417969 69.449219 C 325.550781 66.160156 280.011719 46.964844 241.101562 9.042969 L 240.765625 8.726562 C 228.074219 -2.90625 208.933594 -2.910156 196.242188 8.726562 L 195.90625 9.042969 C 156.996094 46.964844 111.457031 66.160156 52.585938 69.449219 C 24.355469 71.023438 1.914062 94.375 1.492188 122.605469 C 1.40625 128.394531 1.257812 133.601562 1.035156 138.519531 L 1.011719 139.441406 C -0.132812 199.46875 -1.554688 274.175781 23.433594 341.984375 C 37.175781 379.273438 57.988281 411.691406 85.289062 438.332031 C 116.382812 468.675781 157.109375 492.765625 206.34375 509.933594 C 207.917969 510.480469 209.550781 510.929688 211.203125 511.261719 L 211.296875 511.28125 C 213.6875 511.761719 216.097656 512 218.503906 512 C 220.910156 512 223.316406 511.761719 225.707031 511.28125 C 227.398438 510.945312 229.070312 510.488281 230.6875 509.921875 C 279.855469 492.730469 320.535156 468.628906 351.605469 438.285156 C 378.894531 411.632812 399.707031 379.210938 413.460938 341.917969 C 438.546875 273.902344 437.125 199.054688 435.984375 138.914062 Z M 218.492188 383.605469 C 148.136719 383.605469 90.894531 326.363281 90.894531 256.007812 C 90.894531 185.648438 148.136719 128.410156 218.492188 128.410156 C 288.851562 128.410156 346.089844 185.648438 346.089844 256.007812 C 346.089844 326.363281 288.851562 383.605469 218.492188 383.605469 Z M 218.492188 383.605469 " style=" fill-rule:nonzero;fill-opacity:1;" stroke="#898f91" fill="#898f91"/>
</g>
</svg>
