<?xml version="1.0" standalone="no"?><!-- Generator: Gravit.io --><svg xmlns="http://www.w3.org/2000/svg" xmlns:xlink="http://www.w3.org/1999/xlink" style="isolation:isolate" viewBox="0 0 845 722.204" width="845" height="722.204"><g><path d=" M 768.202 218.712 Q 807.692 248.329 822.5 364.328 Q 800.287 488.966 768.202 509.945 L 768.202 218.712 Z " fill="rgb(137,143,145)"/><path d="M 248.224 152.074 L 361.001 152.074 C 399.139 152.074 430.102 183.037 430.102 221.175 L 430.102 372.972 C 430.102 411.11 399.139 442.073 361.001 442.073 L 248.224 442.073 C 210.086 442.073 179.123 411.11 179.123 372.972 L 179.123 221.175 C 179.123 183.037 210.086 152.074 248.224 152.074 Z" style="stroke:none;fill:#898F91;stroke-miterlimit:10;"/><path d="M 511.248 160.243 L 606.54 160.243 C 639.478 160.243 666.22 186.985 666.22 219.924 L 666.22 372.181 C 666.22 405.12 639.478 431.862 606.54 431.862 L 511.248 431.862 C 478.309 431.862 451.567 405.12 451.567 372.181 L 451.567 219.924 C 451.567 186.985 478.309 160.243 511.248 160.243 Z" style="stroke:none;fill:#898F91;stroke-miterlimit:10;"/><path d=" M 142.545 76.798 Q 129.794 114.641 131.439 192.797 C 133.084 270.953 127.325 553.959 168.46 576.583 C 209.595 599.207 260.602 627.178 427.608 628.413 Q 594.614 629.647 650.969 595.093 Q 704.032 567.945 712.671 458.115 Q 721.309 348.286 700.33 69.393 Q 768.202 95.72 775.607 144.67 Q 783.011 193.62 787.947 414.924 Q 783.011 589.335 747.224 616.072 C 711.437 642.81 640.685 688.88 427.608 698.753 Q 214.531 708.625 105.524 616.072 Q 65.624 567.122 62.333 467.988 Q 59.042 368.853 62.333 176.755 Q 61.51 98.188 142.545 76.798 Z " fill="rgb(137,143,145)"/><path d=" M 132.673 96.542 Q 427.608 -8.762 712.671 87.904 L 700.33 69.393 Q 662.486 44.713 559.65 36.074 Q 544.43 23.323 421.438 22.5 L 322.715 28.67 Q 286.516 31.961 273.353 41.011 Q 170.105 56.642 137.609 80.5 L 132.673 96.542 Z " fill="rgb(137,143,145)"/><path d=" M 68.503 210.074 Q 27.163 294.605 22.844 338.414 Q 18.524 382.222 68.503 509.945 Q 78.992 236.606 68.503 210.074 Z " fill="rgb(137,143,145)"/><path d=" M 378.692 548.817 C 378.692 524.639 398.322 505.009 422.5 505.009 C 446.678 505.009 466.308 524.639 466.308 548.817 C 466.308 572.996 446.678 592.625 422.5 592.625 C 398.322 592.625 378.692 572.996 378.692 548.817 Z  M 408.979 548.817 C 408.979 541.355 415.038 535.296 422.5 535.296 C 429.962 535.296 436.021 541.355 436.021 548.817 C 436.021 556.28 429.962 562.338 422.5 562.338 C 415.038 562.338 408.979 556.28 408.979 548.817 L 408.979 548.817 L 408.979 548.817 Z  M 398.162 548.817 C 398.162 535.385 409.068 524.479 422.5 524.479 C 435.932 524.479 446.838 535.385 446.838 548.817 C 446.838 562.25 435.932 573.155 422.5 573.155 C 409.068 573.155 398.162 562.25 398.162 548.817 L 398.162 548.817 L 398.162 548.817 Z " fill-rule="evenodd" fill="rgb(137,143,145)"/></g></svg>