<?xml version="1.0" standalone="no"?><!-- Generator: Gravit.io --><svg xmlns="http://www.w3.org/2000/svg" xmlns:xlink="http://www.w3.org/1999/xlink" style="isolation:isolate" viewBox="0 0 500 500" width="500" height="500"><defs><filter id="ybONhQFhZrthCG5yAPJwHY5r5KdcUrtL" x="-200%" y="-200%" width="400%" height="400%" filterUnits="objectBoundingBox" color-interpolation-filters="sRGB"><feOffset xmlns="http://www.w3.org/2000/svg" in="SourceGraphic" dx="0" dy="0"/><feGaussianBlur xmlns="http://www.w3.org/2000/svg" stdDeviation="2.146804531419514" result="pf_100_offsetBlur"/><feComposite xmlns="http://www.w3.org/2000/svg" in="SourceGraphic" in2="pf_100_offsetBlur" result="pf_100_inverse" operator="out"/><feFlood xmlns="http://www.w3.org/2000/svg" flood-color="#000000" flood-opacity="0.5" result="pf_100_color"/><feComposite xmlns="http://www.w3.org/2000/svg" in="pf_100_color" in2="pf_100_inverse" operator="in" result="pf_100_shadow"/><feComposite xmlns="http://www.w3.org/2000/svg" in="pf_100_shadow" in2="SourceGraphic" operator="over"/></filter></defs><g filter="url(#ybONhQFhZrthCG5yAPJwHY5r5KdcUrtL)"><path d=" M 406.705 422.375 L 93.295 422.375 C 41.52 422.375 -0.727 380.127 -0.727 328.352 C -0.727 287.828 25.474 252.068 63.051 239.344 C 68.191 204.242 95.019 177.414 128.93 172.494 C 142.906 116.946 192.722 77.911 250 77.625 C 295.914 77.625 337.441 102.478 359.442 141.874 C 418.959 130.779 469.386 177.289 469.386 234.33 C 469.386 241.538 468.54 248.903 466.691 256.111 C 488.268 273.891 500.754 300.394 500.727 328.352 C 500.727 380.127 458.48 422.375 406.705 422.375 Z  M 141.028 187.444 L 138.708 202.863 C 114.357 202.989 93.295 224.05 93.295 250 L 93.672 263.226 L 80.822 266.893 C 51.643 272.904 30.684 298.561 30.614 328.352 C 30.614 362.89 58.758 391.034 93.295 391.034 L 406.705 391.034 C 441.242 391.034 469.386 362.89 469.386 328.352 C 469.373 306.826 458.261 286.828 439.989 275.449 L 429.113 268.616 L 433.752 256.613 C 436.52 249.506 437.975 241.956 438.045 234.33 C 438.045 199.792 409.901 171.648 375.364 171.648 C 369.377 171.648 362.984 172.745 355.901 175.095 L 342.174 179.608 L 336.532 166.382 C 321.893 131.555 287.779 108.919 250 108.966 C 203.428 109.224 164.063 143.537 157.45 189.637 L 155.476 203.114 L 137.938 202.812 L 141.028 187.444 Z " fill="rgb(255,255,255)"/></g><g filter="url(#7wpS1UN84cAwqCztkTmGrUvXuJmmSzsA)"><path d="M 143.262 215.333 L 231.081 215.333 C 251.207 215.333 267.546 231.673 267.546 251.798 L 267.546 335.535 C 267.546 355.661 251.207 372 231.081 372 L 143.262 372 C 123.137 372 106.797 355.661 106.797 335.535 L 106.797 251.798 C 106.797 231.673 123.137 215.333 143.262 215.333 Z" style="stroke:none;fill:#00EE93;stroke-miterlimit:10;"/><path d="M 311.705 224.519 L 389.24 224.519 C 407.134 224.519 421.661 239.047 421.661 256.94 L 421.661 331.924 C 421.661 349.818 407.134 364.345 389.24 364.345 L 311.705 364.345 C 293.811 364.345 279.283 349.818 279.283 331.924 L 279.283 256.94 C 279.283 239.047 293.811 224.519 311.705 224.519 Z" style="stroke:none;fill:#00EE93;stroke-miterlimit:10;"/></g><defs><filter id="7wpS1UN84cAwqCztkTmGrUvXuJmmSzsA" x="-200%" y="-200%" width="400%" height="400%" filterUnits="objectBoundingBox" color-interpolation-filters="sRGB"><feOffset xmlns="http://www.w3.org/2000/svg" in="SourceGraphic" dx="0" dy="0"/><feGaussianBlur xmlns="http://www.w3.org/2000/svg" stdDeviation="2.146804531419514" result="pf_100_offsetBlur"/><feComposite xmlns="http://www.w3.org/2000/svg" in="SourceGraphic" in2="pf_100_offsetBlur" result="pf_100_inverse" operator="out"/><feFlood xmlns="http://www.w3.org/2000/svg" flood-color="#000000" flood-opacity="0.5" result="pf_100_color"/><feComposite xmlns="http://www.w3.org/2000/svg" in="pf_100_color" in2="pf_100_inverse" operator="in" result="pf_100_shadow"/><feComposite xmlns="http://www.w3.org/2000/svg" in="pf_100_shadow" in2="SourceGraphic" operator="over"/></filter></defs></svg>